<mxfile host="app.diagrams.net" modified="2024-05-20T16:58:53.628Z" agent="Mozilla/5.0 (Windows NT 10.0; Win64; x64) AppleWebKit/537.36 (KHTML, like Gecko) Chrome/125.0.0.0 Safari/537.36 Edg/125.0.0.0" etag="90CZD4ndAQ-IFOLnlsMa" version="24.4.4" type="github" pages="3">
  <diagram id="iBNpny0mjN00gEUgiwwx" name="Use case 1">
    <mxGraphModel dx="1394" dy="610" grid="0" gridSize="10" guides="1" tooltips="1" connect="1" arrows="1" fold="1" page="0" pageScale="1" pageWidth="827" pageHeight="1169" math="0" shadow="0">
      <root>
        <mxCell id="0" />
        <mxCell id="1" parent="0" />
        <mxCell id="P2Hgr8UQj_7_ScoWSgwE-1" value="User" style="shape=umlActor;verticalLabelPosition=bottom;verticalAlign=top;html=1;outlineConnect=0;" parent="1" vertex="1">
          <mxGeometry x="161" y="683" width="30" height="60" as="geometry" />
        </mxCell>
        <mxCell id="P2Hgr8UQj_7_ScoWSgwE-4" value="Admin" style="shape=umlActor;verticalLabelPosition=bottom;verticalAlign=top;html=1;outlineConnect=0;" parent="1" vertex="1">
          <mxGeometry x="1511.19" y="671.35" width="30" height="60" as="geometry" />
        </mxCell>
        <mxCell id="P2Hgr8UQj_7_ScoWSgwE-5" value="Quản lý tài khoản&lt;div&gt;(UC 5)&lt;/div&gt;" style="ellipse;whiteSpace=wrap;html=1;" parent="1" vertex="1">
          <mxGeometry x="360" y="730" width="133.5" height="70" as="geometry" />
        </mxCell>
        <mxCell id="P2Hgr8UQj_7_ScoWSgwE-6" value="Đăng nhập&lt;div&gt;(UC 1)&lt;/div&gt;" style="ellipse;whiteSpace=wrap;html=1;" parent="1" vertex="1">
          <mxGeometry x="710" y="684.75" width="183" height="103.5" as="geometry" />
        </mxCell>
        <mxCell id="P2Hgr8UQj_7_ScoWSgwE-7" value="Quản lý CLB&lt;div&gt;(UC 14)&lt;/div&gt;" style="ellipse;whiteSpace=wrap;html=1;" parent="1" vertex="1">
          <mxGeometry x="1170.94" y="777.41" width="130" height="62.75" as="geometry" />
        </mxCell>
        <mxCell id="P2Hgr8UQj_7_ScoWSgwE-9" value="Nhận thông báo&lt;div&gt;(UC 2)&lt;/div&gt;" style="ellipse;whiteSpace=wrap;html=1;" parent="1" vertex="1">
          <mxGeometry x="353.25" y="510" width="124.5" height="60" as="geometry" />
        </mxCell>
        <mxCell id="P2Hgr8UQj_7_ScoWSgwE-11" value="include" style="endArrow=open;endSize=12;dashed=1;html=1;rounded=0;" parent="1" source="P2Hgr8UQj_7_ScoWSgwE-7" target="P2Hgr8UQj_7_ScoWSgwE-42" edge="1">
          <mxGeometry width="160" relative="1" as="geometry">
            <mxPoint x="1134" y="506.41" as="sourcePoint" />
            <mxPoint x="771" y="461.41" as="targetPoint" />
          </mxGeometry>
        </mxCell>
        <mxCell id="P2Hgr8UQj_7_ScoWSgwE-13" value="include" style="endArrow=open;endSize=12;dashed=1;html=1;rounded=0;" parent="1" source="P2Hgr8UQj_7_ScoWSgwE-5" target="P2Hgr8UQj_7_ScoWSgwE-6" edge="1">
          <mxGeometry width="160" relative="1" as="geometry">
            <mxPoint x="581.11" y="489.75" as="sourcePoint" />
            <mxPoint x="640.4761744798907" y="372.0811908389351" as="targetPoint" />
          </mxGeometry>
        </mxCell>
        <mxCell id="P2Hgr8UQj_7_ScoWSgwE-14" value="Đăng nhập&lt;div&gt;(UC 1)&lt;/div&gt;" style="ellipse;whiteSpace=wrap;html=1;" parent="1" vertex="1">
          <mxGeometry x="350" y="432" width="115" height="70" as="geometry" />
        </mxCell>
        <mxCell id="P2Hgr8UQj_7_ScoWSgwE-15" value="Tìm CLB&lt;div&gt;(UC 7)&lt;/div&gt;" style="ellipse;whiteSpace=wrap;html=1;" parent="1" vertex="1">
          <mxGeometry x="366.31" y="900" width="113.69" height="60" as="geometry" />
        </mxCell>
        <mxCell id="P2Hgr8UQj_7_ScoWSgwE-17" value="" style="endArrow=open;endFill=1;endSize=12;html=1;rounded=0;" parent="1" source="P2Hgr8UQj_7_ScoWSgwE-1" target="P2Hgr8UQj_7_ScoWSgwE-15" edge="1">
          <mxGeometry width="160" relative="1" as="geometry">
            <mxPoint x="74" y="754" as="sourcePoint" />
            <mxPoint x="304" y="754" as="targetPoint" />
          </mxGeometry>
        </mxCell>
        <mxCell id="P2Hgr8UQj_7_ScoWSgwE-18" value="" style="endArrow=open;endFill=1;endSize=12;html=1;rounded=0;" parent="1" source="P2Hgr8UQj_7_ScoWSgwE-1" target="P2Hgr8UQj_7_ScoWSgwE-14" edge="1">
          <mxGeometry width="160" relative="1" as="geometry">
            <mxPoint x="74" y="754" as="sourcePoint" />
            <mxPoint x="241" y="981.1700000000001" as="targetPoint" />
          </mxGeometry>
        </mxCell>
        <mxCell id="P2Hgr8UQj_7_ScoWSgwE-19" value="" style="endArrow=open;endFill=1;endSize=12;html=1;rounded=0;" parent="1" source="P2Hgr8UQj_7_ScoWSgwE-1" target="P2Hgr8UQj_7_ScoWSgwE-9" edge="1">
          <mxGeometry width="160" relative="1" as="geometry">
            <mxPoint x="180" y="350" as="sourcePoint" />
            <mxPoint x="266" y="565" as="targetPoint" />
          </mxGeometry>
        </mxCell>
        <mxCell id="P2Hgr8UQj_7_ScoWSgwE-29" value="" style="endArrow=open;endFill=1;endSize=12;html=1;rounded=0;" parent="1" source="P2Hgr8UQj_7_ScoWSgwE-1" target="P2Hgr8UQj_7_ScoWSgwE-5" edge="1">
          <mxGeometry width="160" relative="1" as="geometry">
            <mxPoint x="180" y="350" as="sourcePoint" />
            <mxPoint x="310" y="630" as="targetPoint" />
          </mxGeometry>
        </mxCell>
        <mxCell id="P2Hgr8UQj_7_ScoWSgwE-31" value="Hoạt động CLB&lt;div&gt;(UC 3)&lt;/div&gt;" style="ellipse;whiteSpace=wrap;html=1;" parent="1" vertex="1">
          <mxGeometry x="350" y="573.8800000000001" width="126" height="68.06" as="geometry" />
        </mxCell>
        <mxCell id="P2Hgr8UQj_7_ScoWSgwE-35" value="" style="endArrow=open;endFill=1;endSize=12;html=1;rounded=0;" parent="1" source="P2Hgr8UQj_7_ScoWSgwE-4" target="P2Hgr8UQj_7_ScoWSgwE-7" edge="1">
          <mxGeometry width="160" relative="1" as="geometry">
            <mxPoint x="1049.29" y="617.84" as="sourcePoint" />
            <mxPoint x="854.29" y="624.84" as="targetPoint" />
          </mxGeometry>
        </mxCell>
        <mxCell id="P2Hgr8UQj_7_ScoWSgwE-37" value="Truy cập Dashboard CLB&lt;div&gt;(UC 8)&lt;/div&gt;" style="ellipse;whiteSpace=wrap;html=1;" parent="1" vertex="1">
          <mxGeometry x="540" y="641.94" width="110" height="72" as="geometry" />
        </mxCell>
        <mxCell id="P2Hgr8UQj_7_ScoWSgwE-38" value="Truy cập CLB&lt;div&gt;(UC 4)&lt;/div&gt;" style="ellipse;whiteSpace=wrap;html=1;" parent="1" vertex="1">
          <mxGeometry x="360" y="661.13" width="111" height="55.87" as="geometry" />
        </mxCell>
        <mxCell id="P2Hgr8UQj_7_ScoWSgwE-39" value="include" style="endArrow=open;endSize=12;dashed=1;html=1;rounded=0;" parent="1" source="P2Hgr8UQj_7_ScoWSgwE-37" target="P2Hgr8UQj_7_ScoWSgwE-6" edge="1">
          <mxGeometry x="-0.1496" width="160" relative="1" as="geometry">
            <mxPoint x="673.34" y="430.42" as="sourcePoint" />
            <mxPoint x="770.34" y="606.42" as="targetPoint" />
            <mxPoint as="offset" />
          </mxGeometry>
        </mxCell>
        <mxCell id="P2Hgr8UQj_7_ScoWSgwE-40" value="include" style="endArrow=open;endSize=12;dashed=1;html=1;rounded=0;" parent="1" source="P2Hgr8UQj_7_ScoWSgwE-38" target="P2Hgr8UQj_7_ScoWSgwE-37" edge="1">
          <mxGeometry x="-0.1496" width="160" relative="1" as="geometry">
            <mxPoint x="793.81" y="375.1" as="sourcePoint" />
            <mxPoint x="822.81" y="563.1" as="targetPoint" />
            <mxPoint as="offset" />
          </mxGeometry>
        </mxCell>
        <mxCell id="P2Hgr8UQj_7_ScoWSgwE-41" value="include" style="endArrow=open;endSize=12;dashed=1;html=1;rounded=0;" parent="1" source="P2Hgr8UQj_7_ScoWSgwE-31" target="P2Hgr8UQj_7_ScoWSgwE-37" edge="1">
          <mxGeometry width="160" relative="1" as="geometry">
            <mxPoint x="599.72" y="419.56" as="sourcePoint" />
            <mxPoint x="509.72" y="467.56" as="targetPoint" />
          </mxGeometry>
        </mxCell>
        <mxCell id="P2Hgr8UQj_7_ScoWSgwE-42" value="Truy cập Dashboard admin&lt;div&gt;(UC 9)&lt;/div&gt;" style="ellipse;whiteSpace=wrap;html=1;" parent="1" vertex="1">
          <mxGeometry x="961" y="705.28" width="100" height="55.25" as="geometry" />
        </mxCell>
        <mxCell id="P2Hgr8UQj_7_ScoWSgwE-43" value="include" style="endArrow=open;endSize=12;dashed=1;html=1;rounded=0;entryX=1;entryY=0.5;entryDx=0;entryDy=0;" parent="1" source="P2Hgr8UQj_7_ScoWSgwE-42" target="P2Hgr8UQj_7_ScoWSgwE-6" edge="1">
          <mxGeometry width="160" relative="1" as="geometry">
            <mxPoint x="1105.85" y="1013.51" as="sourcePoint" />
            <mxPoint x="884.85" y="938.51" as="targetPoint" />
          </mxGeometry>
        </mxCell>
        <mxCell id="P2Hgr8UQj_7_ScoWSgwE-45" value="include" style="endArrow=open;endSize=12;dashed=1;html=1;rounded=0;" parent="1" source="P2Hgr8UQj_7_ScoWSgwE-15" target="P2Hgr8UQj_7_ScoWSgwE-6" edge="1">
          <mxGeometry width="160" relative="1" as="geometry">
            <mxPoint x="555.7" y="523.94" as="sourcePoint" />
            <mxPoint x="661.7" y="636.94" as="targetPoint" />
          </mxGeometry>
        </mxCell>
        <mxCell id="P2Hgr8UQj_7_ScoWSgwE-46" value="Nhắn tin&lt;div&gt;(UC 6)&lt;/div&gt;" style="ellipse;whiteSpace=wrap;html=1;direction=south;" parent="1" vertex="1">
          <mxGeometry x="360.25" y="810" width="133.25" height="70" as="geometry" />
        </mxCell>
        <mxCell id="P2Hgr8UQj_7_ScoWSgwE-47" value="include" style="endArrow=open;endSize=12;dashed=1;html=1;rounded=0;" parent="1" source="P2Hgr8UQj_7_ScoWSgwE-46" target="P2Hgr8UQj_7_ScoWSgwE-6" edge="1">
          <mxGeometry width="160" relative="1" as="geometry">
            <mxPoint x="524.6" y="799.18" as="sourcePoint" />
            <mxPoint x="777.6" y="747.18" as="targetPoint" />
          </mxGeometry>
        </mxCell>
        <mxCell id="P2Hgr8UQj_7_ScoWSgwE-48" value="" style="endArrow=open;endFill=1;endSize=12;html=1;rounded=0;" parent="1" source="P2Hgr8UQj_7_ScoWSgwE-1" target="P2Hgr8UQj_7_ScoWSgwE-46" edge="1">
          <mxGeometry width="160" relative="1" as="geometry">
            <mxPoint x="185" y="788.83" as="sourcePoint" />
            <mxPoint x="438" y="791.83" as="targetPoint" />
          </mxGeometry>
        </mxCell>
        <mxCell id="P2Hgr8UQj_7_ScoWSgwE-49" value="Quản lý hoạt động&lt;div&gt;&lt;span style=&quot;background-color: initial;&quot;&gt;và sự kiện&lt;/span&gt;&lt;/div&gt;&lt;div&gt;&lt;span style=&quot;background-color: initial;&quot;&gt;(UC 12)&lt;/span&gt;&lt;/div&gt;" style="ellipse;whiteSpace=wrap;html=1;" parent="1" vertex="1">
          <mxGeometry x="1167.0000000000002" y="617.41" width="137.87" height="71.06" as="geometry" />
        </mxCell>
        <mxCell id="P2Hgr8UQj_7_ScoWSgwE-50" value="include" style="endArrow=open;endSize=12;dashed=1;html=1;rounded=0;" parent="1" source="P2Hgr8UQj_7_ScoWSgwE-49" target="P2Hgr8UQj_7_ScoWSgwE-42" edge="1">
          <mxGeometry width="160" relative="1" as="geometry">
            <mxPoint x="1094.05" y="613.24" as="sourcePoint" />
            <mxPoint x="1001.05" y="665.24" as="targetPoint" />
          </mxGeometry>
        </mxCell>
        <mxCell id="P2Hgr8UQj_7_ScoWSgwE-51" value="Quản lý tài chính,&lt;div&gt;&lt;span style=&quot;background-color: initial;&quot;&gt;ngân sách&lt;/span&gt;&lt;div&gt;&lt;span style=&quot;background-color: initial;&quot;&gt;và cơ sở vật chất&lt;/span&gt;&lt;/div&gt;&lt;/div&gt;&lt;div&gt;&lt;span style=&quot;background-color: initial;&quot;&gt;(UC 11)&lt;/span&gt;&lt;/div&gt;" style="ellipse;whiteSpace=wrap;html=1;" parent="1" vertex="1">
          <mxGeometry x="1174.5" y="537.41" width="122.88" height="70" as="geometry" />
        </mxCell>
        <mxCell id="P2Hgr8UQj_7_ScoWSgwE-52" value="Hỗ trợ và đào tạo&lt;div&gt;(UC 15)&lt;/div&gt;" style="ellipse;whiteSpace=wrap;html=1;" parent="1" vertex="1">
          <mxGeometry x="1177.8700000000001" y="847.41" width="120" height="60" as="geometry" />
        </mxCell>
        <mxCell id="P2Hgr8UQj_7_ScoWSgwE-53" value="Quản lý kết nối&amp;nbsp;&lt;div&gt;và truyền thông&lt;/div&gt;&lt;div&gt;(UC 16)&lt;/div&gt;" style="ellipse;whiteSpace=wrap;html=1;" parent="1" vertex="1">
          <mxGeometry x="1189" y="918.4699999999999" width="120.5" height="60" as="geometry" />
        </mxCell>
        <mxCell id="P2Hgr8UQj_7_ScoWSgwE-55" value="Quản lý người dùng&lt;div&gt;(UC 13)&lt;/div&gt;" style="ellipse;whiteSpace=wrap;html=1;" parent="1" vertex="1">
          <mxGeometry x="1176.78" y="695.54" width="118.32" height="69.75" as="geometry" />
        </mxCell>
        <mxCell id="P2Hgr8UQj_7_ScoWSgwE-57" value="Giải quyết xung đột và kỉ luật&lt;div&gt;(UC 10)&lt;/div&gt;" style="ellipse;whiteSpace=wrap;html=1;" parent="1" vertex="1">
          <mxGeometry x="1176.44" y="447.41" width="117.87" height="80" as="geometry" />
        </mxCell>
        <mxCell id="P2Hgr8UQj_7_ScoWSgwE-59" value="include" style="endArrow=open;endSize=12;dashed=1;html=1;rounded=0;" parent="1" source="P2Hgr8UQj_7_ScoWSgwE-52" target="P2Hgr8UQj_7_ScoWSgwE-42" edge="1">
          <mxGeometry width="160" relative="1" as="geometry">
            <mxPoint x="1155.93" y="776.5799999999999" as="sourcePoint" />
            <mxPoint x="1055.93" y="778.5799999999999" as="targetPoint" />
          </mxGeometry>
        </mxCell>
        <mxCell id="P2Hgr8UQj_7_ScoWSgwE-60" value="include" style="endArrow=open;endSize=12;dashed=1;html=1;rounded=0;" parent="1" source="P2Hgr8UQj_7_ScoWSgwE-53" target="P2Hgr8UQj_7_ScoWSgwE-42" edge="1">
          <mxGeometry width="160" relative="1" as="geometry">
            <mxPoint x="1160.62" y="845.93" as="sourcePoint" />
            <mxPoint x="1029.62" y="795.93" as="targetPoint" />
          </mxGeometry>
        </mxCell>
        <mxCell id="P2Hgr8UQj_7_ScoWSgwE-62" value="include" style="endArrow=open;endSize=12;dashed=1;html=1;rounded=0;" parent="1" source="P2Hgr8UQj_7_ScoWSgwE-55" target="P2Hgr8UQj_7_ScoWSgwE-42" edge="1">
          <mxGeometry width="160" relative="1" as="geometry">
            <mxPoint x="1160.93" y="716.7199999999999" as="sourcePoint" />
            <mxPoint x="1060.93" y="718.7199999999999" as="targetPoint" />
          </mxGeometry>
        </mxCell>
        <mxCell id="P2Hgr8UQj_7_ScoWSgwE-63" value="include" style="endArrow=open;endSize=12;dashed=1;html=1;rounded=0;" parent="1" source="P2Hgr8UQj_7_ScoWSgwE-51" target="P2Hgr8UQj_7_ScoWSgwE-42" edge="1">
          <mxGeometry width="160" relative="1" as="geometry">
            <mxPoint x="1140.17" y="560.54" as="sourcePoint" />
            <mxPoint x="981.17" y="679.54" as="targetPoint" />
          </mxGeometry>
        </mxCell>
        <mxCell id="P2Hgr8UQj_7_ScoWSgwE-64" value="include" style="endArrow=open;endSize=12;dashed=1;html=1;rounded=0;" parent="1" source="P2Hgr8UQj_7_ScoWSgwE-57" target="P2Hgr8UQj_7_ScoWSgwE-42" edge="1">
          <mxGeometry width="160" relative="1" as="geometry">
            <mxPoint x="1145.61" y="492.96000000000004" as="sourcePoint" />
            <mxPoint x="990.61" y="688.9599999999999" as="targetPoint" />
          </mxGeometry>
        </mxCell>
        <mxCell id="P2Hgr8UQj_7_ScoWSgwE-66" value="" style="endArrow=open;endFill=1;endSize=12;html=1;rounded=0;" parent="1" source="P2Hgr8UQj_7_ScoWSgwE-4" target="P2Hgr8UQj_7_ScoWSgwE-55" edge="1">
          <mxGeometry width="160" relative="1" as="geometry">
            <mxPoint x="1661.69" y="676.1" as="sourcePoint" />
            <mxPoint x="1284.69" y="710.1" as="targetPoint" />
          </mxGeometry>
        </mxCell>
        <mxCell id="P2Hgr8UQj_7_ScoWSgwE-70" value="" style="endArrow=open;endFill=1;endSize=12;html=1;rounded=0;" parent="1" source="P2Hgr8UQj_7_ScoWSgwE-4" target="P2Hgr8UQj_7_ScoWSgwE-53" edge="1">
          <mxGeometry width="160" relative="1" as="geometry">
            <mxPoint x="1641.44" y="674.41" as="sourcePoint" />
            <mxPoint x="1286.44" y="917.41" as="targetPoint" />
          </mxGeometry>
        </mxCell>
        <mxCell id="P2Hgr8UQj_7_ScoWSgwE-71" value="" style="endArrow=open;endFill=1;endSize=12;html=1;rounded=0;" parent="1" source="P2Hgr8UQj_7_ScoWSgwE-4" target="P2Hgr8UQj_7_ScoWSgwE-52" edge="1">
          <mxGeometry width="160" relative="1" as="geometry">
            <mxPoint x="1660.06" y="679.7099999999999" as="sourcePoint" />
            <mxPoint x="1286.06" y="837.7099999999999" as="targetPoint" />
          </mxGeometry>
        </mxCell>
        <mxCell id="P2Hgr8UQj_7_ScoWSgwE-72" value="" style="endArrow=open;endFill=1;endSize=12;html=1;rounded=0;" parent="1" source="P2Hgr8UQj_7_ScoWSgwE-4" target="P2Hgr8UQj_7_ScoWSgwE-49" edge="1">
          <mxGeometry width="160" relative="1" as="geometry">
            <mxPoint x="1666.8600000000001" y="664.4399999999999" as="sourcePoint" />
            <mxPoint x="1280.8600000000001" y="637.4399999999999" as="targetPoint" />
          </mxGeometry>
        </mxCell>
        <mxCell id="P2Hgr8UQj_7_ScoWSgwE-74" value="" style="endArrow=open;endFill=1;endSize=12;html=1;rounded=0;" parent="1" source="P2Hgr8UQj_7_ScoWSgwE-4" target="P2Hgr8UQj_7_ScoWSgwE-57" edge="1">
          <mxGeometry width="160" relative="1" as="geometry">
            <mxPoint x="1675.54" y="664.5699999999999" as="sourcePoint" />
            <mxPoint x="1290.54" y="583.5699999999999" as="targetPoint" />
          </mxGeometry>
        </mxCell>
        <mxCell id="P2Hgr8UQj_7_ScoWSgwE-77" value="" style="endArrow=open;endFill=1;endSize=12;html=1;rounded=0;" parent="1" source="P2Hgr8UQj_7_ScoWSgwE-4" target="P2Hgr8UQj_7_ScoWSgwE-51" edge="1">
          <mxGeometry width="160" relative="1" as="geometry">
            <mxPoint x="1666.29" y="678.8" as="sourcePoint" />
            <mxPoint x="1281.29" y="597.8" as="targetPoint" />
          </mxGeometry>
        </mxCell>
        <mxCell id="P2Hgr8UQj_7_ScoWSgwE-80" value="" style="endArrow=open;endFill=1;endSize=12;html=1;rounded=0;" parent="1" source="P2Hgr8UQj_7_ScoWSgwE-1" target="P2Hgr8UQj_7_ScoWSgwE-38" edge="1">
          <mxGeometry width="160" relative="1" as="geometry">
            <mxPoint x="189.59" y="685" as="sourcePoint" />
            <mxPoint x="443.59" y="664" as="targetPoint" />
          </mxGeometry>
        </mxCell>
        <mxCell id="P2Hgr8UQj_7_ScoWSgwE-82" value="" style="endArrow=open;endFill=1;endSize=12;html=1;rounded=0;" parent="1" source="P2Hgr8UQj_7_ScoWSgwE-1" target="P2Hgr8UQj_7_ScoWSgwE-31" edge="1">
          <mxGeometry width="160" relative="1" as="geometry">
            <mxPoint x="210" y="681.15" as="sourcePoint" />
            <mxPoint x="326" y="659.15" as="targetPoint" />
          </mxGeometry>
        </mxCell>
        <mxCell id="pissKZSWC9KIFfptUPAJ-1" value="Đăng nhập&lt;div&gt;(UC 1)&lt;/div&gt;" style="ellipse;whiteSpace=wrap;html=1;" parent="1" vertex="1">
          <mxGeometry x="1178.94" y="377.41" width="112.87" height="60" as="geometry" />
        </mxCell>
        <mxCell id="pissKZSWC9KIFfptUPAJ-2" value="" style="endArrow=open;endFill=1;endSize=12;html=1;rounded=0;" parent="1" source="P2Hgr8UQj_7_ScoWSgwE-4" target="pissKZSWC9KIFfptUPAJ-1" edge="1">
          <mxGeometry width="160" relative="1" as="geometry">
            <mxPoint x="1530.46" y="651.87" as="sourcePoint" />
            <mxPoint x="1281.46" y="472.87000000000006" as="targetPoint" />
          </mxGeometry>
        </mxCell>
      </root>
    </mxGraphModel>
  </diagram>
  <diagram name="Use case 2" id="JG1YfQHntbPxP5x5FCR1">
    <mxGraphModel dx="1394" dy="210" grid="0" gridSize="10" guides="1" tooltips="1" connect="1" arrows="1" fold="1" page="0" pageScale="1" pageWidth="827" pageHeight="1169" math="0" shadow="0">
      <root>
        <mxCell id="0" />
        <mxCell id="1" parent="0" />
        <mxCell id="hzwPo2CL2FDcJhNUh84i-1" value="User" style="shape=umlActor;verticalLabelPosition=bottom;verticalAlign=top;html=1;outlineConnect=0;" parent="1" vertex="1">
          <mxGeometry x="161" y="683" width="30" height="60" as="geometry" />
        </mxCell>
        <mxCell id="hzwPo2CL2FDcJhNUh84i-2" value="&lt;div&gt;Giảng viên cố vấn&lt;/div&gt;&lt;div&gt;(Lvl 3)&lt;/div&gt;" style="shape=umlActor;verticalLabelPosition=bottom;verticalAlign=top;html=1;outlineConnect=0;" parent="1" vertex="1">
          <mxGeometry x="335" y="549" width="30" height="60" as="geometry" />
        </mxCell>
        <mxCell id="hzwPo2CL2FDcJhNUh84i-35" value="Quản lý CLB&lt;div&gt;(UC 22)&lt;/div&gt;" style="ellipse;whiteSpace=wrap;html=1;" parent="1" vertex="1">
          <mxGeometry x="713" y="695" width="104.5" height="61" as="geometry" />
        </mxCell>
        <mxCell id="LQVTCHBbVSDtArNmQQ9k-1" value="Thành viên&amp;nbsp;&lt;div&gt;(Lvl 1)&lt;/div&gt;" style="shape=umlActor;verticalLabelPosition=bottom;verticalAlign=top;html=1;outlineConnect=0;" parent="1" vertex="1">
          <mxGeometry x="344" y="839" width="30" height="60" as="geometry" />
        </mxCell>
        <mxCell id="LQVTCHBbVSDtArNmQQ9k-2" value="Ban cán sự&lt;div&gt;(Lvl 2)&lt;/div&gt;" style="shape=umlActor;verticalLabelPosition=bottom;verticalAlign=top;html=1;outlineConnect=0;" parent="1" vertex="1">
          <mxGeometry x="335" y="692" width="30" height="60" as="geometry" />
        </mxCell>
        <mxCell id="LQVTCHBbVSDtArNmQQ9k-5" value="" style="endArrow=open;endFill=1;endSize=12;html=1;rounded=0;" parent="1" source="hzwPo2CL2FDcJhNUh84i-2" target="hzwPo2CL2FDcJhNUh84i-1" edge="1">
          <mxGeometry width="160" relative="1" as="geometry">
            <mxPoint x="230" y="610" as="sourcePoint" />
            <mxPoint x="596.0010567044505" y="590.0030416438046" as="targetPoint" />
          </mxGeometry>
        </mxCell>
        <mxCell id="LQVTCHBbVSDtArNmQQ9k-6" value="" style="endArrow=open;endFill=1;endSize=12;html=1;rounded=0;" parent="1" source="LQVTCHBbVSDtArNmQQ9k-2" target="hzwPo2CL2FDcJhNUh84i-1" edge="1">
          <mxGeometry width="160" relative="1" as="geometry">
            <mxPoint x="330" y="740" as="sourcePoint" />
            <mxPoint x="390" y="670" as="targetPoint" />
          </mxGeometry>
        </mxCell>
        <mxCell id="LQVTCHBbVSDtArNmQQ9k-7" value="" style="endArrow=open;endFill=1;endSize=12;html=1;rounded=0;" parent="1" source="LQVTCHBbVSDtArNmQQ9k-1" target="hzwPo2CL2FDcJhNUh84i-1" edge="1">
          <mxGeometry width="160" relative="1" as="geometry">
            <mxPoint x="221" y="790.06" as="sourcePoint" />
            <mxPoint x="250" y="850" as="targetPoint" />
          </mxGeometry>
        </mxCell>
        <mxCell id="MRnAMhl2_ecgQOnCvnVQ-1" value="Viết thông báo&lt;div&gt;(UC 17)&lt;/div&gt;" style="ellipse;whiteSpace=wrap;html=1;" parent="1" vertex="1">
          <mxGeometry x="445" y="649" width="104.5" height="61" as="geometry" />
        </mxCell>
        <mxCell id="MRnAMhl2_ecgQOnCvnVQ-3" value="Nhận lời mời làm giảng viên cố vấn&lt;div&gt;(UC 21)&lt;/div&gt;" style="ellipse;whiteSpace=wrap;html=1;" parent="1" vertex="1">
          <mxGeometry x="439.5" y="435" width="110" height="90" as="geometry" />
        </mxCell>
        <mxCell id="MRnAMhl2_ecgQOnCvnVQ-4" value="" style="endArrow=open;endFill=1;endSize=12;html=1;rounded=0;" parent="1" source="LQVTCHBbVSDtArNmQQ9k-2" target="MRnAMhl2_ecgQOnCvnVQ-1" edge="1">
          <mxGeometry width="160" relative="1" as="geometry">
            <mxPoint x="494" y="608.72" as="sourcePoint" />
            <mxPoint x="495" y="719" as="targetPoint" />
          </mxGeometry>
        </mxCell>
        <mxCell id="MRnAMhl2_ecgQOnCvnVQ-5" value="" style="endArrow=open;endFill=1;endSize=12;html=1;rounded=0;" parent="1" source="LQVTCHBbVSDtArNmQQ9k-2" target="hzwPo2CL2FDcJhNUh84i-35" edge="1">
          <mxGeometry width="160" relative="1" as="geometry">
            <mxPoint x="374" y="762.9" as="sourcePoint" />
            <mxPoint x="549" y="792.9" as="targetPoint" />
          </mxGeometry>
        </mxCell>
        <mxCell id="Ni93VFUd86YPEjIl-eFN-1" value="Giải thể CLB&lt;div&gt;(UC 19)&lt;/div&gt;" style="ellipse;whiteSpace=wrap;html=1;" parent="1" vertex="1">
          <mxGeometry x="623" y="528" width="90" height="51" as="geometry" />
        </mxCell>
        <mxCell id="Ni93VFUd86YPEjIl-eFN-2" value="Hỗ trợ chuyên muôn&lt;div&gt;(UC 20)&lt;/div&gt;" style="ellipse;whiteSpace=wrap;html=1;" parent="1" vertex="1">
          <mxGeometry x="656" y="460" width="104.5" height="71" as="geometry" />
        </mxCell>
        <mxCell id="Ni93VFUd86YPEjIl-eFN-3" value="Phê duyệt/ đánh giá hoạt động&lt;div&gt;(UC 18)&lt;/div&gt;" style="ellipse;whiteSpace=wrap;html=1;" parent="1" vertex="1">
          <mxGeometry x="562" y="581" width="120" height="80" as="geometry" />
        </mxCell>
        <mxCell id="01Otf8cuKCkS4dUQE1Di-1" value="include" style="endArrow=open;endSize=12;dashed=1;html=1;rounded=0;" parent="1" source="Ni93VFUd86YPEjIl-eFN-3" target="hzwPo2CL2FDcJhNUh84i-35" edge="1">
          <mxGeometry width="160" relative="1" as="geometry">
            <mxPoint x="379" y="918" as="sourcePoint" />
            <mxPoint x="649" y="780" as="targetPoint" />
          </mxGeometry>
        </mxCell>
        <mxCell id="01Otf8cuKCkS4dUQE1Di-2" value="include" style="endArrow=open;endSize=12;dashed=1;html=1;rounded=0;" parent="1" source="Ni93VFUd86YPEjIl-eFN-1" target="hzwPo2CL2FDcJhNUh84i-35" edge="1">
          <mxGeometry width="160" relative="1" as="geometry">
            <mxPoint x="660.68" y="618.66" as="sourcePoint" />
            <mxPoint x="594.68" y="652.66" as="targetPoint" />
          </mxGeometry>
        </mxCell>
        <mxCell id="01Otf8cuKCkS4dUQE1Di-4" value="include" style="endArrow=open;endSize=12;dashed=1;html=1;rounded=0;" parent="1" source="Ni93VFUd86YPEjIl-eFN-2" target="hzwPo2CL2FDcJhNUh84i-35" edge="1">
          <mxGeometry width="160" relative="1" as="geometry">
            <mxPoint x="660.84" y="517.8199999999999" as="sourcePoint" />
            <mxPoint x="574.84" y="691.82" as="targetPoint" />
          </mxGeometry>
        </mxCell>
        <mxCell id="01Otf8cuKCkS4dUQE1Di-5" value="" style="endArrow=open;endFill=1;endSize=12;html=1;rounded=0;" parent="1" source="hzwPo2CL2FDcJhNUh84i-2" target="Ni93VFUd86YPEjIl-eFN-3" edge="1">
          <mxGeometry width="160" relative="1" as="geometry">
            <mxPoint x="385" y="659.18" as="sourcePoint" />
            <mxPoint x="561" y="660.18" as="targetPoint" />
          </mxGeometry>
        </mxCell>
        <mxCell id="01Otf8cuKCkS4dUQE1Di-6" value="" style="endArrow=open;endFill=1;endSize=12;html=1;rounded=0;" parent="1" source="hzwPo2CL2FDcJhNUh84i-2" target="Ni93VFUd86YPEjIl-eFN-1" edge="1">
          <mxGeometry width="160" relative="1" as="geometry">
            <mxPoint x="372.14" y="561.45" as="sourcePoint" />
            <mxPoint x="705.14" y="629.45" as="targetPoint" />
          </mxGeometry>
        </mxCell>
        <mxCell id="01Otf8cuKCkS4dUQE1Di-8" value="" style="endArrow=open;endFill=1;endSize=12;html=1;rounded=0;" parent="1" source="hzwPo2CL2FDcJhNUh84i-2" target="Ni93VFUd86YPEjIl-eFN-2" edge="1">
          <mxGeometry width="160" relative="1" as="geometry">
            <mxPoint x="361.74" y="549.25" as="sourcePoint" />
            <mxPoint x="664.74" y="483.25" as="targetPoint" />
          </mxGeometry>
        </mxCell>
        <mxCell id="01Otf8cuKCkS4dUQE1Di-9" value="" style="endArrow=open;endFill=1;endSize=12;html=1;rounded=0;" parent="1" source="hzwPo2CL2FDcJhNUh84i-2" target="MRnAMhl2_ecgQOnCvnVQ-3" edge="1">
          <mxGeometry width="160" relative="1" as="geometry">
            <mxPoint x="355" y="549.12" as="sourcePoint" />
            <mxPoint x="617" y="425.12" as="targetPoint" />
          </mxGeometry>
        </mxCell>
        <mxCell id="01Otf8cuKCkS4dUQE1Di-11" value="" style="endArrow=open;endFill=1;endSize=12;html=1;rounded=0;" parent="1" source="hzwPo2CL2FDcJhNUh84i-2" target="MRnAMhl2_ecgQOnCvnVQ-1" edge="1">
          <mxGeometry width="160" relative="1" as="geometry">
            <mxPoint x="365" y="609.49" as="sourcePoint" />
            <mxPoint x="490" y="679.49" as="targetPoint" />
          </mxGeometry>
        </mxCell>
        <mxCell id="01Otf8cuKCkS4dUQE1Di-12" value="" style="endArrow=open;endFill=1;endSize=12;html=1;rounded=0;" parent="1" source="hzwPo2CL2FDcJhNUh84i-2" target="hzwPo2CL2FDcJhNUh84i-35" edge="1">
          <mxGeometry width="160" relative="1" as="geometry">
            <mxPoint x="365" y="593.34" as="sourcePoint" />
            <mxPoint x="550" y="638.34" as="targetPoint" />
          </mxGeometry>
        </mxCell>
      </root>
    </mxGraphModel>
  </diagram>
  <diagram id="-IfmIm17vtdVcgutL_G0" name="Login">
    <mxGraphModel dx="1221" dy="698" grid="1" gridSize="10" guides="1" tooltips="1" connect="1" arrows="1" fold="1" page="1" pageScale="1" pageWidth="827" pageHeight="1169" math="0" shadow="0">
      <root>
        <mxCell id="0" />
        <mxCell id="1" parent="0" />
        <mxCell id="UYk6k8ellgsMdeAF7nX2-1" value="Actor" style="shape=umlActor;verticalLabelPosition=bottom;verticalAlign=top;html=1;" vertex="1" parent="1">
          <mxGeometry x="80" y="320" width="30" height="60" as="geometry" />
        </mxCell>
        <mxCell id="UYk6k8ellgsMdeAF7nX2-2" value="Login view" style="shape=umlBoundary;whiteSpace=wrap;html=1;" vertex="1" parent="1">
          <mxGeometry x="210" y="310" width="90" height="80" as="geometry" />
        </mxCell>
        <mxCell id="UYk6k8ellgsMdeAF7nX2-3" value="Model&amp;nbsp;" style="ellipse;shape=umlEntity;whiteSpace=wrap;html=1;" vertex="1" parent="1">
          <mxGeometry x="679" y="320" width="70" height="70" as="geometry" />
        </mxCell>
        <mxCell id="UYk6k8ellgsMdeAF7nX2-4" value="" style="endArrow=none;dashed=1;html=1;rounded=0;" edge="1" parent="1" source="UYk6k8ellgsMdeAF7nX2-19" target="UYk6k8ellgsMdeAF7nX2-1">
          <mxGeometry width="50" height="50" relative="1" as="geometry">
            <mxPoint x="95" y="1004" as="sourcePoint" />
            <mxPoint x="110" y="500" as="targetPoint" />
          </mxGeometry>
        </mxCell>
        <mxCell id="UYk6k8ellgsMdeAF7nX2-5" value="" style="html=1;points=[[0,0,0,0,5],[0,1,0,0,-5],[1,0,0,0,5],[1,1,0,0,-5]];perimeter=orthogonalPerimeter;outlineConnect=0;targetShapes=umlLifeline;portConstraint=eastwest;newEdgeStyle={&quot;curved&quot;:0,&quot;rounded&quot;:0};" vertex="1" parent="1">
          <mxGeometry x="90" y="420" width="10" height="40" as="geometry" />
        </mxCell>
        <mxCell id="UYk6k8ellgsMdeAF7nX2-6" value="" style="endArrow=none;dashed=1;html=1;rounded=0;" edge="1" parent="1" source="UYk6k8ellgsMdeAF7nX2-25">
          <mxGeometry width="50" height="50" relative="1" as="geometry">
            <mxPoint x="714" y="921.1428571428571" as="sourcePoint" />
            <mxPoint x="713.7" y="390" as="targetPoint" />
          </mxGeometry>
        </mxCell>
        <mxCell id="UYk6k8ellgsMdeAF7nX2-7" value="" style="endArrow=none;dashed=1;html=1;rounded=0;" edge="1" parent="1" target="UYk6k8ellgsMdeAF7nX2-2">
          <mxGeometry width="50" height="50" relative="1" as="geometry">
            <mxPoint x="255" y="964" as="sourcePoint" />
            <mxPoint x="255" y="500" as="targetPoint" />
          </mxGeometry>
        </mxCell>
        <mxCell id="UYk6k8ellgsMdeAF7nX2-8" value="Login Controller" style="ellipse;shape=umlControl;whiteSpace=wrap;html=1;" vertex="1" parent="1">
          <mxGeometry x="400" y="310" width="70" height="80" as="geometry" />
        </mxCell>
        <mxCell id="UYk6k8ellgsMdeAF7nX2-9" value="" style="endArrow=none;dashed=1;html=1;rounded=0;" edge="1" parent="1" source="UYk6k8ellgsMdeAF7nX2-30">
          <mxGeometry width="50" height="50" relative="1" as="geometry">
            <mxPoint x="435" y="920.5714285714286" as="sourcePoint" />
            <mxPoint x="435" y="390" as="targetPoint" />
          </mxGeometry>
        </mxCell>
        <mxCell id="UYk6k8ellgsMdeAF7nX2-10" value="" style="html=1;points=[[0,0,0,0,5],[0,1,0,0,-5],[1,0,0,0,5],[1,1,0,0,-5]];perimeter=orthogonalPerimeter;outlineConnect=0;targetShapes=umlLifeline;portConstraint=eastwest;newEdgeStyle={&quot;curved&quot;:0,&quot;rounded&quot;:0};" vertex="1" parent="1">
          <mxGeometry x="250" y="430" width="10" height="50" as="geometry" />
        </mxCell>
        <mxCell id="UYk6k8ellgsMdeAF7nX2-11" value="Input login data" style="html=1;verticalAlign=bottom;endArrow=block;curved=0;rounded=0;" edge="1" parent="1">
          <mxGeometry width="80" relative="1" as="geometry">
            <mxPoint x="100" y="440" as="sourcePoint" />
            <mxPoint x="250" y="440" as="targetPoint" />
          </mxGeometry>
        </mxCell>
        <mxCell id="UYk6k8ellgsMdeAF7nX2-12" value="" style="html=1;points=[[0,0,0,0,5],[0,1,0,0,-5],[1,0,0,0,5],[1,1,0,0,-5]];perimeter=orthogonalPerimeter;outlineConnect=0;targetShapes=umlLifeline;portConstraint=eastwest;newEdgeStyle={&quot;curved&quot;:0,&quot;rounded&quot;:0};" vertex="1" parent="1">
          <mxGeometry x="430" y="450" width="10" height="40" as="geometry" />
        </mxCell>
        <mxCell id="UYk6k8ellgsMdeAF7nX2-13" value="Data" style="html=1;verticalAlign=bottom;endArrow=block;curved=0;rounded=0;" edge="1" parent="1">
          <mxGeometry width="80" relative="1" as="geometry">
            <mxPoint x="260" y="460" as="sourcePoint" />
            <mxPoint x="430" y="460" as="targetPoint" />
          </mxGeometry>
        </mxCell>
        <mxCell id="UYk6k8ellgsMdeAF7nX2-14" value="" style="html=1;points=[[0,0,0,0,5],[0,1,0,0,-5],[1,0,0,0,5],[1,1,0,0,-5]];perimeter=orthogonalPerimeter;outlineConnect=0;targetShapes=umlLifeline;portConstraint=eastwest;newEdgeStyle={&quot;curved&quot;:0,&quot;rounded&quot;:0};" vertex="1" parent="1">
          <mxGeometry x="430" y="500" width="10" height="50" as="geometry" />
        </mxCell>
        <mxCell id="UYk6k8ellgsMdeAF7nX2-15" value="Call check data function&amp;nbsp;" style="html=1;align=left;spacingLeft=2;endArrow=block;rounded=0;edgeStyle=orthogonalEdgeStyle;curved=0;rounded=0;" edge="1" parent="1" source="UYk6k8ellgsMdeAF7nX2-12" target="UYk6k8ellgsMdeAF7nX2-14">
          <mxGeometry relative="1" as="geometry">
            <mxPoint x="450" y="480" as="sourcePoint" />
            <Array as="points">
              <mxPoint x="465" y="470" />
              <mxPoint x="465" y="510" />
            </Array>
          </mxGeometry>
        </mxCell>
        <mxCell id="UYk6k8ellgsMdeAF7nX2-16" value="" style="html=1;points=[[0,0,0,0,5],[0,1,0,0,-5],[1,0,0,0,5],[1,1,0,0,-5]];perimeter=orthogonalPerimeter;outlineConnect=0;targetShapes=umlLifeline;portConstraint=eastwest;newEdgeStyle={&quot;curved&quot;:0,&quot;rounded&quot;:0};" vertex="1" parent="1">
          <mxGeometry x="250" y="510" width="10" height="40" as="geometry" />
        </mxCell>
        <mxCell id="UYk6k8ellgsMdeAF7nX2-17" value="Wrong data style" style="endArrow=open;endSize=12;dashed=1;html=1;rounded=0;" edge="1" parent="1">
          <mxGeometry width="160" relative="1" as="geometry">
            <mxPoint x="430" y="520" as="sourcePoint" />
            <mxPoint x="260" y="520" as="targetPoint" />
          </mxGeometry>
        </mxCell>
        <mxCell id="UYk6k8ellgsMdeAF7nX2-18" value="" style="endArrow=none;dashed=1;html=1;rounded=0;" edge="1" parent="1" source="UYk6k8ellgsMdeAF7nX2-34" target="UYk6k8ellgsMdeAF7nX2-19">
          <mxGeometry width="50" height="50" relative="1" as="geometry">
            <mxPoint x="95" y="1004" as="sourcePoint" />
            <mxPoint x="95" y="380" as="targetPoint" />
          </mxGeometry>
        </mxCell>
        <mxCell id="UYk6k8ellgsMdeAF7nX2-19" value="" style="html=1;points=[[0,0,0,0,5],[0,1,0,0,-5],[1,0,0,0,5],[1,1,0,0,-5]];perimeter=orthogonalPerimeter;outlineConnect=0;targetShapes=umlLifeline;portConstraint=eastwest;newEdgeStyle={&quot;curved&quot;:0,&quot;rounded&quot;:0};" vertex="1" parent="1">
          <mxGeometry x="90" y="530" width="10" height="30" as="geometry" />
        </mxCell>
        <mxCell id="UYk6k8ellgsMdeAF7nX2-20" value="Show notification" style="endArrow=open;endSize=12;dashed=1;html=1;rounded=0;" edge="1" parent="1">
          <mxGeometry width="160" relative="1" as="geometry">
            <mxPoint x="250" y="540" as="sourcePoint" />
            <mxPoint x="100" y="540" as="targetPoint" />
          </mxGeometry>
        </mxCell>
        <mxCell id="UYk6k8ellgsMdeAF7nX2-21" value="" style="html=1;points=[[0,0,0,0,5],[0,1,0,0,-5],[1,0,0,0,5],[1,1,0,0,-5]];perimeter=orthogonalPerimeter;outlineConnect=0;targetShapes=umlLifeline;portConstraint=eastwest;newEdgeStyle={&quot;curved&quot;:0,&quot;rounded&quot;:0};" vertex="1" parent="1">
          <mxGeometry x="430" y="565" width="10" height="125" as="geometry" />
        </mxCell>
        <mxCell id="UYk6k8ellgsMdeAF7nX2-22" value="Call request function" style="html=1;align=left;spacingLeft=2;endArrow=block;rounded=0;edgeStyle=orthogonalEdgeStyle;curved=0;rounded=0;" edge="1" parent="1">
          <mxGeometry x="0.0021" relative="1" as="geometry">
            <mxPoint x="440" y="540.0000000000001" as="sourcePoint" />
            <Array as="points">
              <mxPoint x="465" y="540" />
              <mxPoint x="465" y="585" />
            </Array>
            <mxPoint x="440" y="585" as="targetPoint" />
            <mxPoint as="offset" />
          </mxGeometry>
        </mxCell>
        <mxCell id="UYk6k8ellgsMdeAF7nX2-23" value="&lt;span style=&quot;text-align: left;&quot;&gt;Call data form&amp;nbsp;&lt;/span&gt;&lt;span style=&quot;text-align: left;&quot;&gt;database&amp;nbsp;&amp;nbsp;&lt;/span&gt;" style="html=1;verticalAlign=bottom;endArrow=block;curved=0;rounded=0;" edge="1" parent="1" target="UYk6k8ellgsMdeAF7nX2-25">
          <mxGeometry width="80" relative="1" as="geometry">
            <mxPoint x="440" y="610" as="sourcePoint" />
            <mxPoint x="610" y="610" as="targetPoint" />
          </mxGeometry>
        </mxCell>
        <mxCell id="UYk6k8ellgsMdeAF7nX2-24" value="" style="endArrow=none;dashed=1;html=1;rounded=0;" edge="1" parent="1" target="UYk6k8ellgsMdeAF7nX2-25">
          <mxGeometry width="50" height="50" relative="1" as="geometry">
            <mxPoint x="714" y="921.1428571428571" as="sourcePoint" />
            <mxPoint x="713.7" y="390" as="targetPoint" />
          </mxGeometry>
        </mxCell>
        <mxCell id="UYk6k8ellgsMdeAF7nX2-25" value="" style="html=1;points=[[0,0,0,0,5],[0,1,0,0,-5],[1,0,0,0,5],[1,1,0,0,-5]];perimeter=orthogonalPerimeter;outlineConnect=0;targetShapes=umlLifeline;portConstraint=eastwest;newEdgeStyle={&quot;curved&quot;:0,&quot;rounded&quot;:0};" vertex="1" parent="1">
          <mxGeometry x="709" y="600" width="10" height="60" as="geometry" />
        </mxCell>
        <mxCell id="UYk6k8ellgsMdeAF7nX2-26" value="Response-data" style="endArrow=open;endSize=12;dashed=1;html=1;rounded=0;" edge="1" parent="1" source="UYk6k8ellgsMdeAF7nX2-25">
          <mxGeometry x="0.0024" width="160" relative="1" as="geometry">
            <mxPoint x="610" y="640" as="sourcePoint" />
            <mxPoint x="440" y="640" as="targetPoint" />
            <mxPoint as="offset" />
          </mxGeometry>
        </mxCell>
        <mxCell id="UYk6k8ellgsMdeAF7nX2-27" value="" style="html=1;points=[[0,0,0,0,5],[0,1,0,0,-5],[1,0,0,0,5],[1,1,0,0,-5]];perimeter=orthogonalPerimeter;outlineConnect=0;targetShapes=umlLifeline;portConstraint=eastwest;newEdgeStyle={&quot;curved&quot;:0,&quot;rounded&quot;:0};" vertex="1" parent="1">
          <mxGeometry x="250" y="650" width="10" height="40" as="geometry" />
        </mxCell>
        <mxCell id="UYk6k8ellgsMdeAF7nX2-28" value="Call check login function" style="html=1;align=left;spacingLeft=2;endArrow=block;rounded=0;edgeStyle=orthogonalEdgeStyle;curved=0;rounded=0;" edge="1" parent="1">
          <mxGeometry relative="1" as="geometry">
            <mxPoint x="440" y="680" as="sourcePoint" />
            <Array as="points">
              <mxPoint x="460" y="680" />
              <mxPoint x="460" y="713" />
            </Array>
            <mxPoint x="440" y="713" as="targetPoint" />
          </mxGeometry>
        </mxCell>
        <mxCell id="UYk6k8ellgsMdeAF7nX2-29" value="" style="endArrow=none;dashed=1;html=1;rounded=0;" edge="1" parent="1" target="UYk6k8ellgsMdeAF7nX2-30">
          <mxGeometry width="50" height="50" relative="1" as="geometry">
            <mxPoint x="435" y="920.5714285714286" as="sourcePoint" />
            <mxPoint x="435" y="390" as="targetPoint" />
          </mxGeometry>
        </mxCell>
        <mxCell id="UYk6k8ellgsMdeAF7nX2-30" value="" style="html=1;points=[[0,0,0,0,5],[0,1,0,0,-5],[1,0,0,0,5],[1,1,0,0,-5]];perimeter=orthogonalPerimeter;outlineConnect=0;targetShapes=umlLifeline;portConstraint=eastwest;newEdgeStyle={&quot;curved&quot;:0,&quot;rounded&quot;:0};" vertex="1" parent="1">
          <mxGeometry x="430" y="700" width="10" height="60" as="geometry" />
        </mxCell>
        <mxCell id="UYk6k8ellgsMdeAF7nX2-31" value="Response null" style="endArrow=open;endSize=12;dashed=1;html=1;rounded=0;" edge="1" parent="1">
          <mxGeometry width="160" relative="1" as="geometry">
            <mxPoint x="430" y="660" as="sourcePoint" />
            <mxPoint x="260" y="660" as="targetPoint" />
          </mxGeometry>
        </mxCell>
        <mxCell id="UYk6k8ellgsMdeAF7nX2-32" value="Show notification" style="endArrow=open;endSize=12;dashed=1;html=1;rounded=0;" edge="1" parent="1" source="UYk6k8ellgsMdeAF7nX2-27" target="UYk6k8ellgsMdeAF7nX2-34">
          <mxGeometry width="160" relative="1" as="geometry">
            <mxPoint x="250" y="660" as="sourcePoint" />
            <mxPoint x="100" y="660" as="targetPoint" />
          </mxGeometry>
        </mxCell>
        <mxCell id="UYk6k8ellgsMdeAF7nX2-33" value="" style="endArrow=none;dashed=1;html=1;rounded=0;" edge="1" parent="1" target="UYk6k8ellgsMdeAF7nX2-34">
          <mxGeometry width="50" height="50" relative="1" as="geometry">
            <mxPoint x="95" y="1004" as="sourcePoint" />
            <mxPoint x="95" y="560" as="targetPoint" />
          </mxGeometry>
        </mxCell>
        <mxCell id="UYk6k8ellgsMdeAF7nX2-34" value="" style="html=1;points=[[0,0,0,0,5],[0,1,0,0,-5],[1,0,0,0,5],[1,1,0,0,-5]];perimeter=orthogonalPerimeter;outlineConnect=0;targetShapes=umlLifeline;portConstraint=eastwest;newEdgeStyle={&quot;curved&quot;:0,&quot;rounded&quot;:0};" vertex="1" parent="1">
          <mxGeometry x="90" y="660" width="10" height="30" as="geometry" />
        </mxCell>
        <mxCell id="UYk6k8ellgsMdeAF7nX2-35" value="" style="html=1;points=[[0,0,0,0,5],[0,1,0,0,-5],[1,0,0,0,5],[1,1,0,0,-5]];perimeter=orthogonalPerimeter;outlineConnect=0;targetShapes=umlLifeline;portConstraint=eastwest;newEdgeStyle={&quot;curved&quot;:0,&quot;rounded&quot;:0};" vertex="1" parent="1">
          <mxGeometry x="250" y="720" width="10" height="40" as="geometry" />
        </mxCell>
        <mxCell id="UYk6k8ellgsMdeAF7nX2-36" value="Return false" style="endArrow=open;endSize=12;dashed=1;html=1;rounded=0;" edge="1" parent="1">
          <mxGeometry width="160" relative="1" as="geometry">
            <mxPoint x="430" y="730" as="sourcePoint" />
            <mxPoint x="260" y="730" as="targetPoint" />
            <mxPoint as="offset" />
          </mxGeometry>
        </mxCell>
        <mxCell id="UYk6k8ellgsMdeAF7nX2-37" value="Show notification" style="endArrow=open;endSize=12;dashed=1;html=1;rounded=0;" edge="1" parent="1">
          <mxGeometry x="-0.0667" y="-5" width="160" relative="1" as="geometry">
            <mxPoint x="250" y="744.8" as="sourcePoint" />
            <mxPoint x="100" y="744.8" as="targetPoint" />
            <mxPoint as="offset" />
          </mxGeometry>
        </mxCell>
        <mxCell id="UYk6k8ellgsMdeAF7nX2-38" value="" style="html=1;points=[[0,0,0,0,5],[0,1,0,0,-5],[1,0,0,0,5],[1,1,0,0,-5]];perimeter=orthogonalPerimeter;outlineConnect=0;targetShapes=umlLifeline;portConstraint=eastwest;newEdgeStyle={&quot;curved&quot;:0,&quot;rounded&quot;:0};" vertex="1" parent="1">
          <mxGeometry x="90" y="730" width="10" height="30" as="geometry" />
        </mxCell>
        <mxCell id="UYk6k8ellgsMdeAF7nX2-39" value="Main view" style="shape=umlBoundary;whiteSpace=wrap;html=1;" vertex="1" parent="1">
          <mxGeometry x="789" y="310" width="90" height="80" as="geometry" />
        </mxCell>
        <mxCell id="UYk6k8ellgsMdeAF7nX2-40" value="" style="endArrow=none;dashed=1;html=1;rounded=0;" edge="1" parent="1" source="UYk6k8ellgsMdeAF7nX2-43" target="UYk6k8ellgsMdeAF7nX2-39">
          <mxGeometry width="50" height="50" relative="1" as="geometry">
            <mxPoint x="834" y="974" as="sourcePoint" />
            <mxPoint x="834" y="510" as="targetPoint" />
          </mxGeometry>
        </mxCell>
        <mxCell id="UYk6k8ellgsMdeAF7nX2-41" value="&lt;div style=&quot;text-align: left;&quot;&gt;Call change view function&lt;/div&gt;" style="html=1;verticalAlign=bottom;endArrow=block;curved=0;rounded=0;" edge="1" parent="1" target="UYk6k8ellgsMdeAF7nX2-49">
          <mxGeometry width="80" relative="1" as="geometry">
            <mxPoint x="440" y="744.76" as="sourcePoint" />
            <mxPoint x="610" y="744.76" as="targetPoint" />
          </mxGeometry>
        </mxCell>
        <mxCell id="UYk6k8ellgsMdeAF7nX2-42" value="" style="endArrow=none;dashed=1;html=1;rounded=0;" edge="1" parent="1" target="UYk6k8ellgsMdeAF7nX2-43">
          <mxGeometry width="50" height="50" relative="1" as="geometry">
            <mxPoint x="834" y="974" as="sourcePoint" />
            <mxPoint x="834" y="400" as="targetPoint" />
          </mxGeometry>
        </mxCell>
        <mxCell id="UYk6k8ellgsMdeAF7nX2-43" value="" style="html=1;points=[[0,0,0,0,5],[0,1,0,0,-5],[1,0,0,0,5],[1,1,0,0,-5]];perimeter=orthogonalPerimeter;outlineConnect=0;targetShapes=umlLifeline;portConstraint=eastwest;newEdgeStyle={&quot;curved&quot;:0,&quot;rounded&quot;:0};" vertex="1" parent="1">
          <mxGeometry x="829" y="730" width="10" height="70" as="geometry" />
        </mxCell>
        <mxCell id="UYk6k8ellgsMdeAF7nX2-44" value="" style="html=1;points=[[0,0,0,0,5],[0,1,0,0,-5],[1,0,0,0,5],[1,1,0,0,-5]];perimeter=orthogonalPerimeter;outlineConnect=0;targetShapes=umlLifeline;portConstraint=eastwest;newEdgeStyle={&quot;curved&quot;:0,&quot;rounded&quot;:0};" vertex="1" parent="1">
          <mxGeometry x="90" y="780" width="10" height="30" as="geometry" />
        </mxCell>
        <mxCell id="UYk6k8ellgsMdeAF7nX2-45" value="Show main view" style="endArrow=open;endSize=12;dashed=1;html=1;rounded=0;" edge="1" parent="1" source="UYk6k8ellgsMdeAF7nX2-43">
          <mxGeometry width="160" relative="1" as="geometry">
            <mxPoint x="730" y="790" as="sourcePoint" />
            <mxPoint x="100" y="790" as="targetPoint" />
          </mxGeometry>
        </mxCell>
        <mxCell id="UYk6k8ellgsMdeAF7nX2-46" value="View controller" style="ellipse;shape=umlControl;whiteSpace=wrap;html=1;" vertex="1" parent="1">
          <mxGeometry x="552" y="310" width="70" height="80" as="geometry" />
        </mxCell>
        <mxCell id="UYk6k8ellgsMdeAF7nX2-47" value="" style="endArrow=none;dashed=1;html=1;rounded=0;" edge="1" parent="1" source="UYk6k8ellgsMdeAF7nX2-49">
          <mxGeometry width="50" height="50" relative="1" as="geometry">
            <mxPoint x="587" y="920.5714285714286" as="sourcePoint" />
            <mxPoint x="587" y="390" as="targetPoint" />
          </mxGeometry>
        </mxCell>
        <mxCell id="UYk6k8ellgsMdeAF7nX2-48" value="" style="endArrow=none;dashed=1;html=1;rounded=0;" edge="1" parent="1" target="UYk6k8ellgsMdeAF7nX2-49">
          <mxGeometry width="50" height="50" relative="1" as="geometry">
            <mxPoint x="587" y="920.5714285714286" as="sourcePoint" />
            <mxPoint x="587" y="390" as="targetPoint" />
          </mxGeometry>
        </mxCell>
        <mxCell id="UYk6k8ellgsMdeAF7nX2-49" value="" style="html=1;points=[[0,0,0,0,5],[0,1,0,0,-5],[1,0,0,0,5],[1,1,0,0,-5]];perimeter=orthogonalPerimeter;outlineConnect=0;targetShapes=umlLifeline;portConstraint=eastwest;newEdgeStyle={&quot;curved&quot;:0,&quot;rounded&quot;:0};" vertex="1" parent="1">
          <mxGeometry x="582" y="725" width="10" height="60" as="geometry" />
        </mxCell>
        <mxCell id="UYk6k8ellgsMdeAF7nX2-50" value="&lt;span style=&quot;text-align: left;&quot;&gt;Call data form&amp;nbsp;&lt;/span&gt;&lt;span style=&quot;text-align: left;&quot;&gt;database&amp;nbsp;&amp;nbsp;&lt;/span&gt;" style="html=1;verticalAlign=bottom;endArrow=block;curved=0;rounded=0;" edge="1" parent="1">
          <mxGeometry width="80" relative="1" as="geometry">
            <mxPoint x="591.9999999999998" y="764.58" as="sourcePoint" />
            <mxPoint x="829" y="764.58" as="targetPoint" />
          </mxGeometry>
        </mxCell>
        <mxCell id="UYk6k8ellgsMdeAF7nX2-51" value="&lt;b&gt;&lt;font style=&quot;font-size: 20px;&quot;&gt;Use case 1&lt;/font&gt;&lt;/b&gt;" style="text;html=1;align=center;verticalAlign=middle;resizable=0;points=[];autosize=1;strokeColor=none;fillColor=none;" vertex="1" parent="1">
          <mxGeometry x="70" y="253" width="130" height="40" as="geometry" />
        </mxCell>
      </root>
    </mxGraphModel>
  </diagram>
</mxfile>
